<?xml version="1.0" standalone="no"?>
<!DOCTYPE svg PUBLIC "-//W3C//DTD SVG 20010904//EN"
 "http://www.w3.org/TR/2001/REC-SVG-20010904/DTD/svg10.dtd">
<svg version="1.0" xmlns="http://www.w3.org/2000/svg"
 width="512.000000pt" height="512.000000pt" viewBox="0 0 512.000000 512.000000"
 preserveAspectRatio="xMidYMid meet">
<metadata>
Created by potrace 1.14, written by Peter Selinger 2001-2017
</metadata>
<g transform="translate(0.000000,512.000000) scale(0.100000,-0.100000)"
fill="#000000" stroke="none">
<path d="M3643 5101 c-119 -44 -190 -137 -200 -261 -7 -83 13 -149 63 -215
l36 -46 -220 -219 -219 -219 -169 167 c-136 135 -175 168 -199 170 -42 3 -78
-14 -98 -47 -32 -55 -20 -90 57 -164 l39 -38 -256 -258 c-149 -148 -257 -265
-258 -276 -1 -11 -2 -27 -3 -35 -1 -8 4 -26 12 -39 15 -26 13 -28 -107 -146
-51 -50 -54 -52 -80 -39 -35 19 -60 17 -97 -5 -42 -26 -56 -66 -38 -116 15
-45 20 -37 -95 -150 -63 -62 -64 -63 -90 -47 -63 36 -63 36 -538 -441 -498
-498 -493 -492 -498 -634 -3 -86 13 -146 57 -210 l28 -42 -166 -232 c-91 -127
-169 -242 -174 -255 -14 -37 -6 -63 43 -128 6 -7 -73 -94 -227 -247 -143 -144
-238 -247 -242 -263 -18 -73 49 -140 122 -122 16 4 119 99 261 241 129 129
237 235 240 235 3 0 18 -11 35 -25 16 -14 36 -26 44 -26 8 -1 20 -2 27 -3 22
-4 52 11 121 61 37 26 96 68 131 93 34 25 108 78 164 118 l101 73 28 -21 c15
-11 54 -31 86 -44 48 -20 74 -24 136 -21 118 4 167 31 309 170 l118 115 18
-40 c22 -49 92 -115 148 -140 91 -40 211 -27 293 31 39 29 75 72 102 124 9 16
21 20 70 20 l60 0 6 -45 c3 -25 7 -49 7 -55 1 -5 14 -47 30 -91 30 -84 82
-184 126 -242 l25 -34 -44 -42 -43 -43 -40 14 c-26 10 -65 13 -111 10 -255
-15 -371 -321 -192 -504 111 -113 295 -118 415 -10 38 35 79 104 89 149 9 42
6 113 -6 157 -11 44 -11 44 31 87 l42 43 31 -24 c106 -80 314 -164 406 -165
24 0 25 -2 25 -64 0 -64 0 -64 -36 -80 -77 -34 -144 -128 -158 -223 -21 -145
61 -277 206 -329 52 -18 161 -11 214 15 147 71 214 247 147 391 -27 60 -84
121 -135 145 -18 9 -34 21 -34 28 -4 40 -5 94 -2 103 2 7 26 14 53 18 99 13
247 72 342 137 32 22 62 39 68 39 5 0 27 -18 49 -41 l38 -41 -14 -41 c-10 -27
-13 -65 -10 -108 13 -190 198 -316 382 -262 130 39 216 160 210 298 -6 153
-122 272 -274 282 -43 3 -81 0 -107 -9 l-42 -15 -45 43 -45 42 29 40 c71 96
139 261 155 375 3 26 11 48 18 48 6 1 34 2 63 3 50 1 52 0 68 -36 22 -51 80
-106 144 -136 145 -67 316 -3 392 146 33 67 34 188 1 252 -84 161 -271 220
-422 132 -51 -29 -68 -47 -111 -114 l-30 -47 -54 3 c-30 1 -56 5 -58 7 -2 2
-9 33 -16 69 -25 126 -74 240 -146 341 l-33 47 43 42 c44 43 45 43 84 32 99
-30 210 -6 287 61 127 112 132 316 11 435 -113 110 -289 114 -412 9 -75 -63
-109 -183 -85 -296 l12 -59 -41 -41 -41 -41 -48 35 c-95 68 -224 122 -352 148
l-65 13 -1 52 c-1 60 1 64 41 85 170 90 212 316 85 461 -19 21 -55 50 -81 65
l-49 27 38 37 38 37 53 -49 c59 -55 98 -69 141 -51 28 12 60 62 60 95 0 33
-33 74 -184 224 l-155 154 219 219 219 220 38 -31 c159 -126 385 -76 473 104
35 70 35 188 0 260 -34 71 -604 640 -673 673 -68 32 -168 38 -234 13z m-390
-2331 c22 -47 79 -105 128 -130 36 -19 37 -21 35 -74 -1 -30 -4 -57 -7 -60 -3
-3 -23 -8 -45 -11 -108 -17 -255 -76 -351 -141 l-63 -43 -41 42 c-32 33 -39
47 -35 67 4 14 8 31 9 38 3 13 337 352 347 352 3 0 13 -18 23 -40z m-484 -562
l40 -42 -33 -45 c-76 -106 -130 -238 -153 -376 -3 -16 -7 -32 -10 -35 -2 -3
-30 -5 -61 -6 -57 0 -57 0 -76 38 -22 47 -77 102 -130 129 l-39 21 164 165
c210 210 232 222 298 151z"/>
</g>
</svg>
